<?xml version="1.0" encoding="utf-8"?>
<!-- Generator: Adobe Illustrator 18.0.0, SVG Export Plug-In . SVG Version: 6.00 Build 0)  -->
<!DOCTYPE svg PUBLIC "-//W3C//DTD SVG 1.1//EN" "http://www.w3.org/Graphics/SVG/1.1/DTD/svg11.dtd">
<svg version="1.1" id="Layer_1" xmlns="http://www.w3.org/2000/svg" xmlns:xlink="http://www.w3.org/1999/xlink" x="0px" y="0px"
	 width="72.896px" height="69.554px" viewBox="0 0 72.896 69.554" enable-background="new 0 0 72.896 69.554" xml:space="preserve">
<g>
	<path fill="#FFFFFF" d="M0,54.983v-34c0-2.681,0.949-4.971,2.846-6.869c1.897-1.897,4.187-2.846,6.868-2.846h8.5l1.935-5.161
		c0.48-1.239,1.36-2.309,2.637-3.207s2.586-1.347,3.928-1.347h19.429c1.34,0,2.649,0.449,3.927,1.347
		c1.277,0.898,2.156,1.967,2.637,3.207l1.936,5.161h8.5c2.681,0,4.971,0.949,6.868,2.846c1.897,1.897,2.846,4.188,2.846,6.869v34
		c0,2.682-0.948,4.971-2.846,6.868s-4.187,2.846-6.868,2.846H9.714c-2.682,0-4.971-0.948-6.868-2.846
		C0.949,59.954,0,57.665,0,54.983z M24.418,25.973c-3.327,3.327-4.99,7.33-4.99,12.01s1.663,8.684,4.99,12.01
		c3.326,3.327,7.33,4.99,12.01,4.99c4.68,0,8.683-1.664,12.01-4.99c3.326-3.326,4.99-7.33,4.99-12.01s-1.664-8.684-4.99-12.01
		c-3.327-3.326-7.33-4.99-12.01-4.99C31.748,20.983,27.745,22.647,24.418,25.973z M28.707,45.705
		c-2.138-2.137-3.207-4.711-3.207-7.722c0-3.01,1.068-5.584,3.207-7.722c2.137-2.138,4.711-3.207,7.722-3.207
		c3.01,0,5.584,1.069,7.722,3.207c2.137,2.138,3.206,4.712,3.206,7.722c0,3.011-1.069,5.584-3.206,7.722
		c-2.138,2.138-4.712,3.207-7.722,3.207C33.418,48.912,30.844,47.843,28.707,45.705z"/>
</g>
</svg>
